<?xml version="1.0" encoding="UTF-8"?>
<svg width="16px" height="16px" viewBox="0 0 16 16" version="1.1" xmlns="http://www.w3.org/2000/svg" xmlns:xlink="http://www.w3.org/1999/xlink">
    <title>Icon/Menu_dashborad</title>
    <g id="Icon/Menu_dashborad" stroke="none" stroke-width="1" fill="none" fill-rule="evenodd">
        <path d="M2,1 L2,14 L15,14 L15,15 L1,15 L1,1 L2,1 Z M4.4,10 L4.4,13 L3.4,13 L3.4,10 L4.4,10 Z M7.4,8 L7.4,13 L6.4,13 L6.4,8 L7.4,8 Z M10.4,9 L10.4,13 L9.4,13 L9.4,9 L10.4,9 Z M13.4,6 L13.4,13 L12.4,13 L12.4,6 L13.4,6 Z M13.6934239,2.50031057 L14.3065761,3.29027531 L10.0276067,6.61151198 L7.065,4.713 L3.35006115,8.35701147 L2.64993885,7.64298853 L6.93435061,3.44198597 L9.972,5.388 L13.6934239,2.50031057 Z" id="形状结合" fill="#525866"></path>
    </g>
</svg>