<?xml version="1.0" encoding="UTF-8"?>
<svg width="16px" height="16px" viewBox="0 0 16 16" version="1.1" xmlns="http://www.w3.org/2000/svg" xmlns:xlink="http://www.w3.org/1999/xlink">
    <title>切片</title>
    <g id="页面-1" stroke="none" stroke-width="1" fill="none" fill-rule="evenodd">
        <g id="Dashboard" transform="translate(-1832.000000, -59.000000)" fill="#219bd8" fill-rule="nonzero">
            <g id="Icon/Menu_dashborad_1" transform="translate(1832.000000, 59.000000)">
                <path d="M14,1 C14.5522847,1 15,1.44771525 15,2 L15,14 C15,14.5522847 14.5522847,15 14,15 L2,15 C1.44771525,15 1,14.5522847 1,14 L1,2 C1,1.44771525 1.44771525,1 2,1 L14,1 Z M14,5 L2,5 L2,14 L14,14 L14,5 Z M11,7 L11,13 L10,13 L10,7 L11,7 Z M13,9 L13,13 L12,13 L12,9 L13,9 Z M6,7 C7.65685425,7 9,8.34314575 9,10 C9,11.6568542 7.65685425,13 6,13 C4.34314575,13 3,11.6568542 3,10 L4,10 C4,11.1045695 4.8954305,12 6,12 C7.1045695,12 8,11.1045695 8,10 C8,8.8954305 7.1045695,8 6,8 L6,7 Z M5,2 L2,2 L2,4 L5,4 L5,2 Z M14,2 L6,2 L6,4 L14,4 L14,2 Z" id="形状结合"></path>
            </g>
        </g>
    </g>
</svg>