<?xml version="1.0" encoding="UTF-8"?>
<svg width="16px" height="16px" viewBox="0 0 16 16" version="1.1" xmlns="http://www.w3.org/2000/svg" xmlns:xlink="http://www.w3.org/1999/xlink">
    <title>切片</title>
    <g id="页面-1" stroke="none" stroke-width="1" fill="none" fill-rule="evenodd">
        <g id="Dashboard" transform="translate(-1872.000000, -32.000000)">
            <g id="Icon/logout" transform="translate(1872.000000, 32.000000)">
                <polyline id="路径" stroke="#219bd8" stroke-linecap="round" stroke-linejoin="round" points="7.99723333 2 2 2 2 14 8 14"></polyline>
                <path d="M10.6464466,4.64644661 C10.820013,4.47288026 11.0894374,4.45359511 11.2843055,4.58859116 L11.3535534,4.64644661 L14.3535534,7.64644661 C14.5271197,7.82001296 14.5464049,8.08943736 14.4114088,8.2843055 L14.3535534,8.35355339 L11.3535534,11.3535534 C11.1582912,11.5488155 10.8417088,11.5488155 10.6464466,11.3535534 C10.4728803,11.179987 10.4535951,10.9105626 10.5885912,10.7156945 L10.6464466,10.6464466 L13.293,8 L10.6464466,5.35355339 C10.4728803,5.17998704 10.4535951,4.91056264 10.5885912,4.7156945 L10.6464466,4.64644661 Z" id="路径" fill="#219bd8" fill-rule="nonzero"></path>
                <path d="M14,7.49723333 C14.2761424,7.49723333 14.5,7.72109096 14.5,7.99723333 C14.5,8.24269322 14.3231248,8.4468417 14.0898756,8.48917766 L14,8.49723333 L5.33333333,8.49723333 C5.05719096,8.49723333 4.83333333,8.27337571 4.83333333,7.99723333 C4.83333333,7.75177344 5.01020849,7.54762496 5.2434577,7.505289 L5.33333333,7.49723333 L14,7.49723333 Z" id="路径" fill="#219bd8" fill-rule="nonzero"></path>
            </g>
        </g>
    </g>
</svg>